<svg width="44" height="44" viewBox="0 0 44 44" fill="none" xmlns="http://www.w3.org/2000/svg">
<path d="M21.8643 35.0787C17.105 35.0787 13.2202 31.1939 13.2202 26.4346C13.2202 25.6007 13.9117 24.9092 14.7456 24.9092C15.5795 24.9092 16.2711 25.6007 16.2711 26.4346C16.2711 29.5261 18.7728 32.0278 21.8643 32.0278C24.9558 32.0278 27.4575 29.5261 27.4575 26.4346C27.4575 25.6007 28.1491 24.9092 28.983 24.9092C29.8169 24.9092 30.5084 25.6007 30.5084 26.4346C30.5084 31.1939 26.6236 35.0787 21.8643 35.0787Z" fill="#E6E6E6"/>
<path d="M8.01253 10.4288C7.62609 10.4288 7.21931 10.2661 6.93456 9.98139C6.34473 9.39156 6.34473 8.41528 6.93456 7.82545L14.3176 0.442374C14.9075 -0.147458 15.8837 -0.147458 16.4736 0.442374C17.0634 1.03221 17.0634 2.00848 16.4736 2.59831L9.0905 9.98139C8.78542 10.2661 8.39897 10.4288 8.01253 10.4288Z" fill="#E6E6E6"/>
<path d="M35.7149 10.4288C35.3285 10.4288 34.9421 10.2865 34.637 9.98139L27.2539 2.59831C26.6641 2.00848 26.6641 1.03221 27.2539 0.442374C27.8437 -0.147458 28.82 -0.147458 29.4098 0.442374L36.7929 7.82545C37.3827 8.41528 37.3827 9.39156 36.7929 9.98139C36.5082 10.2661 36.1014 10.4288 35.7149 10.4288Z" fill="#E6E6E6"/>
<path d="M38.5628 19.0097C38.4205 19.0097 38.2781 19.0097 38.1357 19.0097H37.6679H5.59324C4.16951 19.0301 2.54238 19.0301 1.36272 17.8504C0.42712 16.9351 0 15.5114 0 13.4165C0 7.82324 4.08815 7.82324 6.0407 7.82324H37.6883C39.6408 7.82324 43.729 7.82324 43.729 13.4165C43.729 15.5317 43.3018 16.9351 42.3662 17.8504C41.3086 18.908 39.8849 19.0097 38.5628 19.0097ZM6.0407 15.9589H38.1561C39.0713 15.9792 39.9256 15.9792 40.2103 15.6945C40.3527 15.5521 40.6578 15.0639 40.6578 13.4165C40.6578 11.1182 40.0883 10.8741 37.6679 10.8741H6.0407C3.62035 10.8741 3.05086 11.1182 3.05086 13.4165C3.05086 15.0639 3.37628 15.5521 3.49832 15.6945C3.78306 15.9589 4.65764 15.9589 5.55256 15.9589H6.0407Z" fill="#E6E6E6"/>
<path d="M27.7414 43.7219H15.477C8.19561 43.7219 6.56848 39.3897 5.93797 35.627L3.07017 18.0337C2.92779 17.1998 3.49729 16.4269 4.33119 16.2845C5.14475 16.1421 5.93797 16.7116 6.08034 17.5455L8.94815 35.1185C9.53798 38.7185 10.7583 40.671 15.477 40.671H27.7414C32.9686 40.671 33.5584 38.8405 34.2296 35.3015L37.6465 17.5049C37.8093 16.671 38.6025 16.1218 39.4364 16.3049C40.2703 16.4676 40.7991 17.2608 40.6364 18.0947L37.2194 35.8914C36.4262 40.0202 35.1042 43.7219 27.7414 43.7219Z" fill="#E6E6E6"/>
</svg>
