<svg width="18" height="19" viewBox="0 0 18 19" fill="none" xmlns="http://www.w3.org/2000/svg">
<path d="M3.29867 4.79343C3.1396 4.79343 2.97215 4.72644 2.85494 4.60921C2.61215 4.36638 2.61215 3.96447 2.85494 3.72164L5.89401 0.68212C6.13681 0.439293 6.53867 0.439293 6.78146 0.68212C7.02425 0.924947 7.02425 1.32687 6.78146 1.56969L3.74239 4.60921C3.6168 4.72644 3.45774 4.79343 3.29867 4.79343Z" fill="white"/>
<path d="M14.7015 4.79343C14.5424 4.79343 14.3834 4.73481 14.2578 4.60921L11.2187 1.56969C10.9759 1.32687 10.9759 0.924947 11.2187 0.68212C11.4615 0.439293 11.8634 0.439293 12.1062 0.68212L15.1452 3.72164C15.388 3.96447 15.388 4.36638 15.1452 4.60921C15.028 4.72644 14.8606 4.79343 14.7015 4.79343Z" fill="white"/>
<path d="M15.8735 8.32652C15.8149 8.32652 15.7563 8.32652 15.6977 8.32652H15.5051H2.30233C1.71628 8.3349 1.04651 8.3349 0.56093 7.84924C0.175814 7.47244 0 6.88631 0 6.02386C0 3.72119 1.68279 3.72119 2.48651 3.72119H15.5135C16.3172 3.72119 18 3.72119 18 6.02386C18 6.89468 17.8242 7.47244 17.4391 7.84924C17.0037 8.28466 16.4177 8.32652 15.8735 8.32652ZM2.48651 7.07052H15.706C16.0828 7.0789 16.4344 7.0789 16.5516 6.96167C16.6102 6.90306 16.7358 6.7021 16.7358 6.02386C16.7358 5.07767 16.5014 4.97719 15.5051 4.97719H2.48651C1.49023 4.97719 1.25581 5.07767 1.25581 6.02386C1.25581 6.7021 1.38977 6.90306 1.44 6.96167C1.55721 7.07052 1.91721 7.07052 2.28558 7.07052H2.48651Z" fill="white"/>
<path d="M7.12449 14.7739C6.78123 14.7739 6.49658 14.4892 6.49658 14.1459V11.1734C6.49658 10.8301 6.78123 10.5454 7.12449 10.5454C7.46774 10.5454 7.7524 10.8301 7.7524 11.1734V14.1459C7.7524 14.4976 7.46774 14.7739 7.12449 14.7739Z" fill="white"/>
<path d="M10.9756 14.7739C10.6323 14.7739 10.3477 14.4892 10.3477 14.1459V11.1734C10.3477 10.8301 10.6323 10.5454 10.9756 10.5454C11.3188 10.5454 11.6035 10.8301 11.6035 11.1734V14.1459C11.6035 14.4976 11.3188 14.7739 10.9756 14.7739Z" fill="white"/>
<path d="M11.4197 18.4999H6.37133C3.37412 18.4999 2.70436 16.7164 2.44482 15.1673L1.26436 7.9244C1.20575 7.5811 1.44017 7.26291 1.78343 7.2043C2.12668 7.14568 2.44482 7.38014 2.50342 7.72344L3.68389 14.958C3.92668 16.4401 4.42901 17.2439 6.37133 17.2439H11.4197C13.5713 17.2439 13.8141 16.4903 14.0904 15.0334L15.4969 7.7067C15.5639 7.36339 15.8904 7.13731 16.2337 7.21267C16.5769 7.27966 16.7946 7.60622 16.7276 7.94952L15.3211 15.2762C14.9946 16.976 14.4504 18.4999 11.4197 18.4999Z" fill="white"/>
</svg>
