<svg width="18" height="18" viewBox="0 0 18 18" fill="none" xmlns="http://www.w3.org/2000/svg">
<path d="M13.5 0H4.5C2.016 0 0 2.008 0 4.48424V9.86893V10.7694C0 13.2456 2.016 15.2536 4.5 15.2536H5.85C6.093 15.2536 6.417 15.4157 6.57 15.6138L7.92 17.4057C8.514 18.1981 9.486 18.1981 10.08 17.4057L11.43 15.6138C11.601 15.3887 11.871 15.2536 12.15 15.2536H13.5C15.984 15.2536 18 13.2456 18 10.7694V4.48424C18 2.008 15.984 0 13.5 0ZM9.9 10.5803H4.5C4.131 10.5803 3.825 10.2741 3.825 9.90495C3.825 9.53577 4.131 9.22962 4.5 9.22962H9.9C10.269 9.22962 10.575 9.53577 10.575 9.90495C10.575 10.2741 10.269 10.5803 9.9 10.5803ZM13.5 6.07804H4.5C4.131 6.07804 3.825 5.77189 3.825 5.4027C3.825 5.03352 4.131 4.72736 4.5 4.72736H13.5C13.869 4.72736 14.175 5.03352 14.175 5.4027C14.175 5.77189 13.869 6.07804 13.5 6.07804Z" fill="#3878FF"/>
</svg>
