<svg width="14" height="18" viewBox="0 0 14 18" fill="none" xmlns="http://www.w3.org/2000/svg">
<path d="M10.71 0H3.29C0.875 0 0 0.9 0 3.429V14.571C0 17.1 0.875 18 3.29 18H10.7013C13.125 18 14 17.1 14 14.571V3.429C14 0.9 13.125 0 10.71 0ZM7 15.57C6.16 15.57 5.46875 14.859 5.46875 13.995C5.46875 13.131 6.16 12.42 7 12.42C7.84 12.42 8.53125 13.131 8.53125 13.995C8.53125 14.859 7.84 15.57 7 15.57ZM8.75 3.825H5.25C4.89125 3.825 4.59375 3.519 4.59375 3.15C4.59375 2.781 4.89125 2.475 5.25 2.475H8.75C9.10875 2.475 9.40625 2.781 9.40625 3.15C9.40625 3.519 9.10875 3.825 8.75 3.825Z" fill="#3878FF"/>
</svg>
