<svg width="39" height="44" viewBox="0 0 39 44" fill="none" xmlns="http://www.w3.org/2000/svg">
<path d="M19.6465 23.293C13.2257 23.293 8 18.0673 8 11.6465C8 5.22573 13.2257 0 19.6465 0C26.0673 0 31.293 5.22573 31.293 11.6465C31.293 18.0673 26.0673 23.293 19.6465 23.293ZM19.6465 3.03822C14.9069 3.03822 11.0382 6.90688 11.0382 11.6465C11.0382 16.3861 14.9069 20.2548 19.6465 20.2548C24.3861 20.2548 28.2548 16.3861 28.2548 11.6465C28.2548 6.90688 24.3861 3.03822 19.6465 3.03822Z" fill="#E6E6E6"/>
<path d="M37.0453 43.5466C36.2149 43.5466 35.5262 42.858 35.5262 42.0275C35.5262 35.0396 28.3965 29.3683 19.6465 29.3683C10.8964 29.3683 3.76673 35.0396 3.76673 42.0275C3.76673 42.858 3.07807 43.5466 2.24762 43.5466C1.41718 43.5466 0.728516 42.858 0.728516 42.0275C0.728516 33.3787 9.21526 26.3301 19.6465 26.3301C30.0777 26.3301 38.5644 33.3787 38.5644 42.0275C38.5644 42.858 37.8758 43.5466 37.0453 43.5466Z" fill="#E6E6E6"/>
</svg>
