<svg width="89" height="89" viewBox="0 0 89 89" fill="none" xmlns="http://www.w3.org/2000/svg">
<path d="M50.2538 69.7907C49.4673 69.7907 48.6808 69.5009 48.0598 68.8799L36.6347 57.4531C35.4343 56.2525 35.4343 54.2652 36.6347 53.0645C37.8352 51.8639 39.8222 51.8639 41.0226 53.0645L52.4477 64.4914C53.6482 65.692 53.6482 67.6793 52.4477 68.8799C51.8682 69.5009 51.0817 69.7907 50.2538 69.7907Z" fill="#666666"/>
<path d="M38.7457 69.9148C37.9592 69.9148 37.1726 69.625 36.5517 69.0039C35.3513 67.8033 35.3513 65.816 36.5517 64.6154L47.9768 53.1886C49.1773 51.9879 51.1643 51.9879 52.3647 53.1886C53.5652 54.3892 53.5652 56.3765 52.3647 57.5771L40.9396 69.0039C40.3187 69.625 39.5322 69.9148 38.7457 69.9148Z" fill="#666666"/>
<path d="M16.3101 21.2267C15.5236 21.2267 14.6957 20.8954 14.1162 20.3158C12.9157 19.1152 12.9157 17.1279 14.1162 15.9273L29.1427 0.898529C30.3431 -0.302114 32.3301 -0.302114 33.5306 0.898529C34.7311 2.09917 34.7311 4.08644 33.5306 5.28708L18.5041 20.3158C17.8831 20.8954 17.0966 21.2267 16.3101 21.2267Z" fill="#666666"/>
<path d="M72.6901 21.2267C71.9036 21.2267 71.1171 20.9368 70.4962 20.3158L55.4697 5.28708C54.2692 4.08644 54.2692 2.09917 55.4697 0.898529C56.6701 -0.302114 58.6571 -0.302114 59.8576 0.898529L74.8841 15.9273C76.0846 17.1279 76.0846 19.1152 74.8841 20.3158C74.3046 20.8954 73.4767 21.2267 72.6901 21.2267Z" fill="#666666"/>
<path d="M78.4856 38.6981C78.1958 38.6981 77.906 38.6981 77.6163 38.6981H76.6642H11.3837C8.48605 38.7395 5.17442 38.7395 2.77349 36.3382C0.869302 34.4751 0 31.577 0 27.3126C0 15.9272 8.32046 15.9272 12.2944 15.9272H76.7056C80.6795 15.9272 89 15.9272 89 27.3126C89 31.6184 88.1307 34.4751 86.2265 36.3382C84.074 38.491 81.1763 38.6981 78.4856 38.6981ZM12.2944 32.4878H77.6577C79.5205 32.5292 81.2591 32.5292 81.8386 31.9496C82.1284 31.6598 82.7493 30.6662 82.7493 27.3126C82.7493 22.6343 81.5902 22.1375 76.6642 22.1375H12.2944C7.36837 22.1375 6.2093 22.6343 6.2093 27.3126C6.2093 30.6662 6.87163 31.6598 7.12 31.9496C7.69953 32.4878 9.47954 32.4878 11.3009 32.4878H12.2944Z" fill="#666666"/>
<path d="M56.463 89.001H31.5016C16.6821 89.001 13.3705 80.1825 12.0872 72.5232L6.25048 36.7109C5.96071 35.0135 7.11978 33.4402 8.81699 33.1504C10.5142 32.8606 12.0872 34.0198 12.377 35.7173L18.2137 71.4881C19.4142 78.8162 21.8979 82.7907 31.5016 82.7907H56.463C67.1016 82.7907 68.3021 79.0646 69.6682 71.8608L76.6226 35.6345C76.9537 33.937 78.5681 32.8192 80.2654 33.1918C81.9626 33.523 83.0388 35.1377 82.7077 36.8351L75.7533 73.0614C74.1388 81.4659 71.4482 89.001 56.463 89.001Z" fill="#666666"/>
</svg>
