<svg width="21" height="20" viewBox="0 0 21 20" fill="none" xmlns="http://www.w3.org/2000/svg">
<path d="M10.5 0C4.98 0 0.5 4.48 0.5 10C0.5 15.52 4.98 20 10.5 20C16.02 20 20.5 15.52 20.5 10C20.5 4.48 16.02 0 10.5 0ZM10.74 13.25C11.52 13.25 12.29 12.96 12.88 12.44C13.19 12.17 13.67 12.2 13.94 12.51C14.21 12.82 14.18 13.3 13.87 13.57C13 14.34 11.89 14.76 10.74 14.76C8.12 14.76 5.99 12.63 5.99 10.01C5.99 7.39 8.12 5.26 10.74 5.26C11.89 5.26 13.01 5.68 13.87 6.45C14.18 6.72 14.21 7.2 13.94 7.51C13.66 7.82 13.19 7.85 12.88 7.58C12.29 7.06 11.53 6.77 10.74 6.77C8.95 6.77 7.49 8.23 7.49 10.02C7.49 11.81 8.95 13.25 10.74 13.25Z" fill="#9F9F9F"/>
</svg>
