<svg width="22" height="24" viewBox="0 0 22 24" fill="none" xmlns="http://www.w3.org/2000/svg">
<path d="M3.71223 20.3647C3.02402 20.3647 2.38095 20.1283 1.91838 19.6894C1.33172 19.1379 1.04967 18.305 1.1512 17.4046L1.56864 13.7579C1.64762 13.0714 2.06505 12.1597 2.55018 11.6645L11.8127 1.88385C14.1256 -0.5585 16.5399 -0.62603 18.9881 1.68126C21.4363 3.98855 21.504 6.39713 19.1912 8.83948L9.92864 18.6201C9.45479 19.1266 8.57479 19.5993 7.88659 19.7119L4.25377 20.3309C4.06197 20.3422 3.89274 20.3647 3.71223 20.3647ZM15.4343 1.67C14.5656 1.67 13.8097 2.21025 13.0425 3.02061L3.77992 12.8125C3.55428 13.0489 3.29479 13.6116 3.24967 13.938L2.83223 17.5847C2.7871 17.9561 2.87736 18.26 3.08044 18.4513C3.28351 18.6426 3.58813 18.7102 3.96044 18.6539L7.59326 18.0349C7.92043 17.9786 8.46197 17.686 8.68761 17.4496L17.9502 7.66895C19.3492 6.18329 19.8568 4.81017 17.8148 2.89681C16.9122 2.03017 16.1338 1.67 15.4343 1.67Z" fill="#646464"/>
<path d="M17.0244 10.7188C17.0018 10.7188 16.968 10.7188 16.9454 10.7188C13.4254 10.3699 10.5936 7.70244 10.0521 4.21337C9.98441 3.75191 10.3003 3.32422 10.7629 3.24544C11.2254 3.1779 11.6541 3.49305 11.7331 3.9545C12.1618 6.67823 14.3731 8.77167 17.1259 9.04179C17.5885 9.08681 17.927 9.50325 17.8818 9.96471C17.8254 10.3924 17.4531 10.7188 17.0244 10.7188Z" fill="#646464"/>
<path d="M21.1538 23.9998H0.846154C0.38359 23.9998 0 23.6171 0 23.1557C0 22.6942 0.38359 22.3115 0.846154 22.3115H21.1538C21.6164 22.3115 22 22.6942 22 23.1557C22 23.6171 21.6164 23.9998 21.1538 23.9998Z" fill="#646464"/>
</svg>
