<svg width="113" height="118" viewBox="0 0 113 118" fill="none" xmlns="http://www.w3.org/2000/svg">
<path d="M56.6273 46.3609L70.6119 23.3591L56.6273 0L42.5195 23.3591L56.6273 46.3609ZM62.1661 23.3271L56.6013 32.4799L50.9878 23.3271L56.6013 14.0323L62.1661 23.3271Z" fill="white"/>
<path d="M34.245 79.5145L25.8648 93.1119H0.131836L37.748 30.8838L50.5675 52.3174L43.2758 63.8273H34.9734L41.7124 52.2735L37.463 45.3253L13.9345 85.0409H22.0788L30.5109 71.4436H39.2194H64.2943L77.7023 93.2021H34.2655L39.3448 85.1003L63.7998 85.1315L60.4863 79.5145H34.245Z" fill="white"/>
<path d="M82.62 71.4438L91.0517 85.0411H99.1964L75.6676 45.3255L71.4181 52.2738L78.1575 63.8275H69.8552L62.5635 52.3176L75.2458 31.1133L112.999 93.1121H87.2661L73.9116 71.4438H82.62Z" fill="white"/>
<path d="M5.46533 98.8008H0V104.66V108.4V114.26V118H5.46533V114.26H9.08581V118H14.5511V114.26V108.4V104.66V98.8008H9.08581H5.46533ZM9.08581 108.4H5.46533V104.66H9.08581V108.4Z" fill="white"/>
<path d="M21.8745 98.8008H16.4092V112.141V118H21.8745H30.9607V112.141H21.8745V98.8008Z" fill="white"/>
<path d="M32.8174 98.8008V104.66V112.141V118H38.2827H47.3685V112.141H38.2827V104.66H47.3685V98.8008H38.2827H32.8174Z" fill="white"/>
<path d="M71.0972 98.8008H65.6318V104.66V108.4V114.26V118H71.0972V114.26H74.7177V118H80.183V114.26V108.4V104.66V98.8008H74.7177H71.0972ZM74.7177 108.4H71.0972V104.66H74.7177V108.4Z" fill="white"/>
<path d="M82.041 98.8008V104.66V107.737V113.596V118H87.5063V113.596H96.5922V107.737H87.5063V104.66H96.5922V98.8008H87.5063H82.041Z" fill="white"/>
<path d="M113 98.8008H108.457H102.992H98.4492V104.66H102.992V118H108.457V104.66H113V98.8008Z" fill="white"/>
<path d="M63.7767 114.26V108.4V104.66V98.8008H58.3114H54.6909H49.2256V104.66V108.4V114.26V118H54.6909V114.26H56.1733L57.945 118H64.0747L62.303 114.26H63.7767ZM54.6909 104.66H58.3114V108.4H54.6909V104.66Z" fill="white"/>
</svg>
