<svg width="18" height="19" viewBox="0 0 18 19" fill="none" xmlns="http://www.w3.org/2000/svg">
<path d="M14.4301 12.8704C14.2401 12.8704 14.0501 12.8004 13.9001 12.6504C13.6101 12.3604 13.6101 11.8804 13.9001 11.5904L15.9301 9.56043L13.9001 7.53043C13.6101 7.24043 13.6101 6.76043 13.9001 6.47043C14.1901 6.18043 14.6701 6.18043 14.9601 6.47043L17.5201 9.03043C17.8101 9.32043 17.8101 9.80043 17.5201 10.0904L14.9601 12.6504C14.8101 12.8004 14.6201 12.8704 14.4301 12.8704Z" fill="#646464"/>
<path d="M16.92 10.3096H6.75C6.34 10.3096 6 9.96957 6 9.55957C6 9.14957 6.34 8.80957 6.75 8.80957H16.92C17.33 8.80957 17.67 9.14957 17.67 9.55957C17.67 9.96957 17.33 10.3096 16.92 10.3096Z" fill="#646464"/>
<path d="M8.75 18.25C3.6 18.25 0 14.65 0 9.5C0 4.35 3.6 0.75 8.75 0.75C9.16 0.75 9.5 1.09 9.5 1.5C9.5 1.91 9.16 2.25 8.75 2.25C4.48 2.25 1.5 5.23 1.5 9.5C1.5 13.77 4.48 16.75 8.75 16.75C9.16 16.75 9.5 17.09 9.5 17.5C9.5 17.91 9.16 18.25 8.75 18.25Z" fill="#646464"/>
</svg>
