<svg width="24" height="24" viewBox="0 0 24 24" fill="none" xmlns="http://www.w3.org/2000/svg">
<path d="M11.5005 21.75C5.85049 21.75 1.25049 17.15 1.25049 11.5C1.25049 5.85 5.85049 1.25 11.5005 1.25C17.1505 1.25 21.7505 5.85 21.7505 11.5C21.7505 17.15 17.1505 21.75 11.5005 21.75ZM11.5005 2.75C6.67049 2.75 2.75049 6.68 2.75049 11.5C2.75049 16.32 6.67049 20.25 11.5005 20.25C16.3305 20.25 20.2505 16.32 20.2505 11.5C20.2505 6.68 16.3305 2.75 11.5005 2.75Z" fill="#9F9F9F"/>
<path d="M22.0004 22.7504C21.8104 22.7504 21.6204 22.6804 21.4704 22.5304L19.4704 20.5304C19.1804 20.2404 19.1804 19.7604 19.4704 19.4704C19.7604 19.1804 20.2404 19.1804 20.5304 19.4704L22.5304 21.4704C22.8204 21.7604 22.8204 22.2404 22.5304 22.5304C22.3804 22.6804 22.1904 22.7504 22.0004 22.7504Z" fill="#9F9F9F"/>
</svg>
