<svg width="49" height="49" viewBox="0 0 49 49" fill="none" xmlns="http://www.w3.org/2000/svg">
<path d="M23.4838 44.4148C11.9462 44.4148 2.55273 35.0214 2.55273 23.4838C2.55273 11.9462 11.9462 2.55273 23.4838 2.55273C35.0214 2.55273 44.4148 11.9462 44.4148 23.4838C44.4148 35.0214 35.0214 44.4148 23.4838 44.4148ZM23.4838 5.61581C13.6207 5.61581 5.61581 13.6411 5.61581 23.4838C5.61581 33.3264 13.6207 41.3517 23.4838 41.3517C33.3469 41.3517 41.3517 33.3264 41.3517 23.4838C41.3517 13.6411 33.3469 5.61581 23.4838 5.61581Z" fill="#E6E6E6"/>
<path d="M44.9251 46.4565C44.5371 46.4565 44.1491 46.3136 43.8428 46.0073L39.7587 41.9232C39.1665 41.331 39.1665 40.3508 39.7587 39.7586C40.3509 39.1664 41.3311 39.1664 41.9233 39.7586L46.0074 43.8427C46.5996 44.4349 46.5996 45.4151 46.0074 46.0073C45.7011 46.3136 45.3131 46.4565 44.9251 46.4565Z" fill="#E6E6E6"/>
</svg>
