<svg width="35" height="35" viewBox="0 0 35 35" fill="none" xmlns="http://www.w3.org/2000/svg">
<path d="M17.5 0C12.8598 0 8.40547 1.84488 5.12695 5.12559C1.84508 8.40761 0.000939117 12.8586 0 17.5C0 22.1394 1.8457 26.5937 5.12695 29.8744C8.40547 33.1551 12.8598 35 17.5 35C22.1402 35 26.5945 33.1551 29.873 29.8744C33.1543 26.5937 35 22.1394 35 17.5C35 12.8606 33.1543 8.40629 29.873 5.12559C26.5945 1.84488 22.1402 0 17.5 0Z" fill="url(#paint0_linear_168_2362)"/>
<path d="M7.91953 17.3116C13.0219 15.0891 16.4234 13.6239 18.1242 12.9159C22.9859 10.8943 23.9949 10.5432 24.6539 10.5314C24.7988 10.529 25.1215 10.5648 25.332 10.7351C25.507 10.8786 25.5562 11.0728 25.5809 11.2091C25.6027 11.3452 25.6328 11.6556 25.6082 11.8979C25.3457 14.665 24.2055 21.3801 23.6258 24.4795C23.3824 25.7909 22.8984 26.2306 22.4309 26.2736C21.4137 26.3671 20.6426 25.602 19.6582 24.957C18.1187 23.9472 17.2492 23.3188 15.7535 22.3336C14.0254 21.195 15.1465 20.5691 16.1309 19.5465C16.3879 19.2788 20.8668 15.2059 20.9516 14.8365C20.9625 14.7903 20.9734 14.618 20.8695 14.5272C20.7684 14.4362 20.618 14.4674 20.5086 14.492C20.3527 14.527 17.8945 16.1534 13.1258 19.3709C12.4285 19.8505 11.7969 20.0843 11.2281 20.072C10.6047 20.0586 9.40156 19.7187 8.50742 19.4283C7.41367 19.072 6.5414 18.8836 6.61796 18.2785C6.65625 17.9635 7.09101 17.6411 7.91953 17.3116Z" fill="white"/>
<defs>
<linearGradient id="paint0_linear_168_2362" x1="1750" y1="0" x2="1750" y2="3500" gradientUnits="userSpaceOnUse">
<stop stop-color="#2AABEE"/>
<stop offset="1" stop-color="#229ED9"/>
</linearGradient>
</defs>
</svg>
