<svg width="35" height="35" viewBox="0 0 35 35" fill="none" xmlns="http://www.w3.org/2000/svg">
<path d="M0.746289 17.3474C0.745469 20.2978 1.51984 23.1787 2.9923 25.718L0.605469 34.3938L9.52391 32.0658C11.9906 33.4027 14.7544 34.1032 17.563 34.1034H17.5704C26.8419 34.1034 34.3892 26.5925 34.3932 17.3606C34.395 12.8871 32.6466 8.68054 29.4701 5.51573C26.2941 2.3512 22.0702 0.60751 17.5697 0.605469C8.29699 0.605469 0.750117 8.11596 0.746289 17.3474Z" fill="url(#paint0_linear_168_2361)"/>
<path d="M0.146289 17.3425C0.145332 20.3991 0.947461 23.383 2.47242 26.0131L0 35L9.23822 32.5886C11.7837 33.9702 14.6496 34.6987 17.5658 34.6997H17.5733C27.1775 34.6997 34.9959 26.9187 35 17.3563C35.0016 12.7221 33.1904 8.3643 29.9004 5.08612C26.61 1.80834 22.235 0.00190552 17.5733 0C7.96742 0 0.150117 7.77999 0.146289 17.3425ZM5.64799 25.5602L5.30305 25.0151C3.85301 22.7197 3.08766 20.0672 3.08875 17.3435C3.09176 9.39546 9.58918 2.92906 17.5788 2.92906C21.4479 2.9307 25.0841 4.43225 27.819 7.15661C30.5538 9.88124 32.0586 13.5031 32.0577 17.3552C32.0541 25.3033 25.5566 31.7705 17.5733 31.7705H17.5675C14.9681 31.7692 12.4187 31.0742 10.1954 29.7609L9.66629 29.4485L4.18414 30.8794L5.64799 25.5602Z" fill="url(#paint1_linear_168_2361)"/>
<path d="M13.2143 10.0911C12.888 9.36934 12.5447 9.35478 12.2345 9.34212C11.9805 9.33123 11.6901 9.33205 11.4 9.33205C11.1096 9.33205 10.6378 9.4408 10.239 9.8743C9.83977 10.3082 8.71484 11.3568 8.71484 13.4895C8.71484 15.6222 10.2752 17.6834 10.4927 17.9729C10.7105 18.2619 13.5051 22.7785 17.9309 24.5161C21.6092 25.9601 22.3577 25.6729 23.156 25.6005C23.9545 25.5283 25.7324 24.5522 26.0951 23.5399C26.4581 22.5278 26.4581 21.6602 26.3492 21.479C26.2404 21.2983 25.95 21.1899 25.5146 20.9732C25.0791 20.7565 22.9382 19.7076 22.5392 19.5629C22.1399 19.4184 21.8497 19.3463 21.5593 19.7803C21.2689 20.2137 20.4351 21.1899 20.1809 21.479C19.927 21.7687 19.6728 21.8048 19.2375 21.588C18.8018 21.3705 17.3995 20.9133 15.7358 19.4366C14.4413 18.2876 13.5674 16.8687 13.3134 16.4346C13.0594 16.0012 13.2862 15.7663 13.5045 15.5503C13.7002 15.3561 13.9401 15.0441 14.158 14.7911C14.3751 14.5379 14.4476 14.3573 14.5928 14.0682C14.7381 13.7789 14.6654 13.5257 14.5567 13.3089C14.4476 13.0921 13.6014 10.9482 13.2143 10.0911Z" fill="white"/>
<defs>
<linearGradient id="paint0_linear_168_2361" x1="1750" y1="3500" x2="1750" y2="0" gradientUnits="userSpaceOnUse">
<stop stop-color="#1FAF38"/>
<stop offset="1" stop-color="#60D669"/>
</linearGradient>
<linearGradient id="paint1_linear_168_2361" x1="1750" y1="3500" x2="1750" y2="0" gradientUnits="userSpaceOnUse">
<stop stop-color="#F9F9F9"/>
<stop offset="1" stop-color="white"/>
</linearGradient>
</defs>
</svg>
